<?xml version="1.0" encoding="UTF-8" standalone="no"?>
<!-- Created with Inkscape (http://www.inkscape.org/) -->

<svg
   width="512mm"
   height="512mm"
   viewBox="0 0 512 512"
   version="1.1"
   id="svg1"
   inkscape:version="1.3.2 (091e20e, 2023-11-25, custom)"
   sodipodi:docname="ArmorBig.svg"
   xmlns:inkscape="http://www.inkscape.org/namespaces/inkscape"
   xmlns:sodipodi="http://sodipodi.sourceforge.net/DTD/sodipodi-0.dtd"
   xmlns="http://www.w3.org/2000/svg"
   xmlns:svg="http://www.w3.org/2000/svg">
  <sodipodi:namedview
     id="namedview1"
     pagecolor="#505050"
     bordercolor="#ffffff"
     borderopacity="1"
     inkscape:showpageshadow="0"
     inkscape:pageopacity="0"
     inkscape:pagecheckerboard="1"
     inkscape:deskcolor="#505050"
     inkscape:document-units="mm"
     inkscape:zoom="0.25"
     inkscape:cx="640"
     inkscape:cy="946"
     inkscape:window-width="1920"
     inkscape:window-height="1009"
     inkscape:window-x="-8"
     inkscape:window-y="-8"
     inkscape:window-maximized="1"
     inkscape:current-layer="layer2" />
  <defs
     id="defs1" />
  <g
     inkscape:label="Layer 1"
     inkscape:groupmode="layer"
     id="layer1">
    <g
       inkscape:groupmode="layer"
       id="layer2"
       inkscape:label="Main"
       style="display:inline"
       transform="translate(70.987996,192.7853)">
      <g
         id="g12"
         style="display:inline"
         transform="matrix(2.0874626,0,0,2.0781391,-79.106322,-206.11947)">
        <rect
           style="display:inline;fill:#757575;fill-opacity:1;stroke:#000000;stroke-width:0"
           id="rect2"
           width="240"
           height="240"
           x="8"
           y="8"
           inkscape:label="rect1"
           ry="12" />
        <path
           style="fill:#6a6a6a;fill-opacity:1;stroke:#000000;stroke-width:0"
           d="m 4.2426407,155.56349 c 0,0 12.0208153,39.24443 90.5096683,33.94113 78.488851,-5.3033 104.651801,8.48528 129.046991,22.27386 24.39518,13.78858 34.29468,25.45585 28.99137,32.88047 -5.3033,7.42462 -63.28605,8.13172 -63.28605,8.13172 L 3.8890873,252.43712 Z"
           id="path8" />
        <path
           style="display:inline;fill:#8a8a8a;fill-opacity:1;stroke:#000000;stroke-width:0"
           d="m 3.8890873,55.507882 c 0,0 23.1920757,-13.144873 42.4264067,-18.031223 C 75.466512,30.071042 84.595296,31.368314 97.934289,19.445437 107.38788,10.995473 138.23937,6.0104076 138.23937,6.0104076 L 89.802561,3.5355339 8.4852814,5.3033009 Z"
           id="path29"
           sodipodi:nodetypes="csscccc" />
      </g>
      <g
         inkscape:label="Border"
         inkscape:groupmode="layer"
         id="layer1-4"
         transform="translate(-70.987996,-192.7853)">
        <path
           id="rect1"
           style="fill:#2b2b36;fill-opacity:1;stroke:#000000;stroke-width:0"
           inkscape:label="rect1"
           d="M 0.02790527,0.0072347 0.15761789,511.94554 511.96188,511.99185 512.00032,0.00106507 Z M 20.066146,8.0165365 492.03856,8.010367 c 6.64799,-8.69e-5 12.00108,5.352003 12,12 l -0.0767,471.981483 c -0.001,6.64799 -5.35201,12.00053 -12,12 l -471.766022,-0.037 c -6.647993,-5.2e-4 -11.9981723,-5.35201 -11.9999996,-12 L 8.0661458,20.016536 C 8.0643186,13.368544 13.418153,8.0166234 20.066146,8.0165365 Z"
           sodipodi:nodetypes="cccccsssssssss" />
      </g>
      <circle
         style="fill:#2b2b36;stroke:#000000;stroke-width:0"
         id="path1"
         cx="-0.98799598"
         cy="-122.7853"
         r="10" />
      <circle
         style="fill:#2b2b36;stroke:#000000;stroke-width:0"
         id="circle3"
         cx="371.01199"
         cy="249.21471"
         r="10" />
      <circle
         style="fill:#2b2b36;stroke:#000000;stroke-width:0"
         id="circle4"
         cx="371.01199"
         cy="-122.7853"
         r="10" />
      <circle
         style="fill:#2b2b36;stroke:#000000;stroke-width:0"
         id="circle5"
         cx="-0.98799598"
         cy="249.21471"
         r="10" />
    </g>
  </g>
</svg>
