<?xml version="1.0" encoding="UTF-8" standalone="no"?>
<!-- Created with Inkscape (http://www.inkscape.org/) -->

<svg
   width="256mm"
   height="256mm"
   viewBox="0 0 256 256"
   version="1.1"
   id="svg1"
   inkscape:version="1.3.2 (091e20e, 2023-11-25, custom)"
   sodipodi:docname="Thruster.svg"
   inkscape:export-filename="Thruster.png"
   inkscape:export-xdpi="25.4"
   inkscape:export-ydpi="25.4"
   xmlns:inkscape="http://www.inkscape.org/namespaces/inkscape"
   xmlns:sodipodi="http://sodipodi.sourceforge.net/DTD/sodipodi-0.dtd"
   xmlns="http://www.w3.org/2000/svg"
   xmlns:svg="http://www.w3.org/2000/svg">
  <sodipodi:namedview
     id="namedview1"
     pagecolor="#ffffff"
     bordercolor="#000000"
     borderopacity="0.25"
     inkscape:showpageshadow="2"
     inkscape:pageopacity="0.0"
     inkscape:pagecheckerboard="0"
     inkscape:deskcolor="#d1d1d1"
     inkscape:document-units="mm"
     inkscape:zoom="0.5"
     inkscape:cx="561"
     inkscape:cy="341"
     inkscape:window-width="1920"
     inkscape:window-height="1009"
     inkscape:window-x="-8"
     inkscape:window-y="-8"
     inkscape:window-maximized="1"
     inkscape:current-layer="layer1" />
  <defs
     id="defs1">
    <inkscape:path-effect
       effect="offset"
       id="path-effect8"
       is_visible="true"
       lpeversion="1.2"
       linejoin_type="miter"
       unit="mm"
       offset="8"
       miter_limit="4"
       attempt_force_join="false"
       update_on_knot_move="true" />
    <inkscape:path-effect
       effect="mirror_symmetry"
       start_point="128.11848,33.899441"
       end_point="128.12,256.26065"
       center_point="128.11924,145.08005"
       id="path-effect6"
       is_visible="true"
       lpeversion="1.2"
       lpesatellites=""
       mode="free"
       discard_orig_path="false"
       fuse_paths="false"
       oposite_fuse="false"
       split_items="false"
       split_open="false"
       link_styles="false" />
    <inkscape:path-effect
       effect="mirror_symmetry"
       start_point="77.549362,122.46146"
       end_point="110.19017,122.46146"
       center_point="93.869766,122.46146"
       id="path-effect5"
       is_visible="true"
       lpeversion="1.2"
       lpesatellites=""
       mode="free"
       discard_orig_path="true"
       fuse_paths="false"
       oposite_fuse="false"
       split_items="false"
       split_open="false"
       link_styles="false" />
    <inkscape:path-effect
       effect="mirror_symmetry"
       start_point="110.19,3.7326474"
       end_point="110.19017,241.19027"
       center_point="110.19008,122.46146"
       id="path-effect4"
       is_visible="true"
       lpeversion="1.2"
       lpesatellites=""
       mode="free"
       discard_orig_path="false"
       fuse_paths="false"
       oposite_fuse="false"
       split_items="false"
       split_open="false"
       link_styles="false" />
  </defs>
  <g
     inkscape:label="Layer 1"
     inkscape:groupmode="layer"
     id="layer1">
    <path
       id="path8"
       style="fill:#2b2b36;fill-opacity:1;stroke:#000000;stroke-width:0"
       d="m 1.7378784,29.070262 c -2.53953553,3.595256 -1.72030841,0.22839 -1.72030841,6.482443 v 10.302767 0.08012 1.558379 c 0,2.397317 0.76852888,4.046049 1.83813071,5.179742 4.1772606,7.348748 14.7688683,11.040994 24.3845583,11.040994 H 41.285335 L 3.9615153,194.65951 c -0.2516688,2.08141 -0.9803532,8.89502 -0.3581177,14.38237 0.5561895,4.90485 0.7947836,11.14272 0.7947836,11.14272 l 1.262972,4.35914 4.9144288,2.76205 c 29.83292,-10.34305 57.199528,-13.86796 117.543728,-14.87032 60.3157,1.00105 87.68641,4.52441 117.50342,14.85592 l 4.88911,-2.74765 1.26297,-4.35914 c 0,0 0.2386,-6.23788 0.79479,-11.14272 0.67289,-5.93407 -0.23819,-13.476 -0.4067,-14.78885 L 214.95329,63.714711 h 14.80633 c 9.5965,0 20.16682,-3.676512 24.3613,-10.99598 1.08124,-1.132394 1.86139,-2.788648 1.86139,-5.224756 v -1.558379 -0.08012 -10.302767 c 0,-9.823761 -4.98751,-5.617818 -6.9572,-5.574964 l -18.53789,0.403324 -18.14101,-0.288088 -7.74706,0.149443 -69.01518,-0.460942 -15.12828,-0.05762 -69.201971,0.288088 z"
       transform="matrix(1,0,0,1.1480122,0,-32.805092)"
       sodipodi:nodetypes="ccccscsccscccccccsccscsccssccccccc" />
    <ellipse
       style="fill:#242424;fill-opacity:1;stroke:#000000;stroke-width:0"
       id="path7"
       ry="19.690138"
       rx="123.30668"
       cy="222.13902"
       cx="128.11363" />
    <path
       id="ellipse19"
       style="fill:#464649;fill-opacity:1;stroke:#000000;stroke-width:0"
       d="m 250.43164,217.01905 c -5.09731,8.57697 -57.54242,18.30501 -122.31812,18.31929 -64.346518,-0.0124 -116.529045,-10.11731 -122.1827171,-18.63091 -0.5252063,-1.27082 -0.3336376,1.06423 -1.6531275,4.97128 -4.602e-4,10.87461 55.1871506,20.021 123.8358446,20.021 68.6487,0 124.29934,-8.81565 124.29888,-19.69027 -0.67714,-0.83111 -1.13109,-4.76179 -1.98076,-4.99039 z"
       sodipodi:nodetypes="ccccscc" />
    <path
       id="rect1"
       style="fill:#2b2b36;stroke:#000000;stroke-width:0"
       d="M 0.0217041,8.53e-6 C 0.00975517,8.53e-6 0,0.00220859 0,0.0049034 v 4.4880454 0.035314 0.6793429 c 0,0.0027 0.00975517,0.00478 0.0217041,0.00478 H 0.25269775 C 1.7087033,7.3735838 9.9197959,9.0212023 19.921781,9.0212023 H 236.07861 c 10.00198,0 18.21255,-1.6476229 19.66857,-3.8088189 h 0.23099 c 0.0119,0 0.0217,-0.00209 0.0217,-0.00478 V 4.528262 4.4929488 0.0049034 C 255.99987,0.0022057 255.98987,0 255.97817,0 H 236.07861 19.921781 Z" />
    <path
       id="path6"
       style="fill:#757575;fill-opacity:1;stroke:#000000;stroke-width:0"
       d="m 199.15322,7.9710902 -71.03287,0.00155 v 0.025322 h -0.004 V 7.97264 l -71.032876,-5.166e-4 -0.0062,0.025838 H 26.240776 7.5039347 c -0.01125,0 -0.020154,0.00582 -0.020154,0.012919 v 11.8256346 0.09302 1.790071 c 0,0.0071 0.0089,0.01292 0.020154,0.01292 H 7.7214925 C 9.0923709,27.427125 16.823568,31.768087 26.240776,31.768087 H 51.175688 L 4.0348958,221.63763 C 36.743875,207.96771 64.607423,203.70672 128.11724,202.50082 l 0.002,-109.422264 -0.002,-61.310469 h 0.003 l -0.001,61.310469 0.003,109.422264 c 63.50983,1.2049 91.37372,5.46534 124.08286,19.13475 L 205.0619,31.768087 h 24.69772 c 9.41721,0 17.14787,-4.340972 18.51877,-10.035563 h 0.21755 c 0.0112,0 0.0202,-0.0058 0.0202,-0.01292 V 19.929533 19.836515 8.0108803 c 0,-0.0071 -0.009,-0.012919 -0.0202,-0.012919 h -18.73632 -30.59968 z" />
  </g>
</svg>
