<?xml version="1.0" encoding="UTF-8" standalone="no"?>
<!-- Created with Inkscape (http://www.inkscape.org/) -->

<svg
   width="256mm"
   height="256mm"
   viewBox="0 0 256 256"
   version="1.1"
   id="svg1"
   inkscape:version="1.3.2 (091e20e, 2023-11-25, custom)"
   sodipodi:docname="MachineGun.svg"
   inkscape:export-filename="MachineGunIcon.png"
   inkscape:export-xdpi="25.4"
   inkscape:export-ydpi="25.4"
   xmlns:inkscape="http://www.inkscape.org/namespaces/inkscape"
   xmlns:sodipodi="http://sodipodi.sourceforge.net/DTD/sodipodi-0.dtd"
   xmlns="http://www.w3.org/2000/svg"
   xmlns:svg="http://www.w3.org/2000/svg">
  <sodipodi:namedview
     id="namedview1"
     pagecolor="#505050"
     bordercolor="#ffffff"
     borderopacity="1"
     inkscape:showpageshadow="0"
     inkscape:pageopacity="0"
     inkscape:pagecheckerboard="1"
     inkscape:deskcolor="#505050"
     inkscape:document-units="mm"
     inkscape:zoom="0.5"
     inkscape:cx="358"
     inkscape:cy="515"
     inkscape:window-width="1920"
     inkscape:window-height="1009"
     inkscape:window-x="-8"
     inkscape:window-y="-8"
     inkscape:window-maximized="1"
     inkscape:current-layer="layer1" />
  <defs
     id="defs1">
    <inkscape:path-effect
       effect="offset"
       id="path-effect3"
       is_visible="true"
       lpeversion="1.2"
       linejoin_type="miter"
       unit="mm"
       offset="8"
       miter_limit="0"
       attempt_force_join="false"
       update_on_knot_move="true" />
    <inkscape:path-effect
       effect="mirror_symmetry"
       start_point="143.14,90.222917"
       end_point="143.14,217.4875"
       center_point="143.14,153.85521"
       id="path-effect2"
       is_visible="true"
       lpeversion="1.2"
       lpesatellites=""
       mode="free"
       discard_orig_path="false"
       fuse_paths="false"
       oposite_fuse="false"
       split_items="false"
       split_open="false"
       link_styles="false" />
  </defs>
  <g
     inkscape:groupmode="layer"
     id="layer2"
     inkscape:label="Base"
     style="display:inline">
    <path
       id="path3"
       style="fill:#2b2b36;fill-opacity:1;stroke:#000000;stroke-width:0"
       d="m 204.51758,193.30469 -76.64453,0.0937 h -0.002 l -76.62109,0.0937 -0.06836,0.0762 h -24.50586 c -13.638789,0 -23.566142,11.59161 -26.03124975,25.2168 C 0.20928452,219.90794 0,221.05377 0,222.01953 v 3.64258 0.18945 21.03516 c -2.6025534,2.29144 -13.280816,12.43229 7.765625,11.71484 l 19.072266,-0.65625 h 30.251953 l 0.0625,0.0547 70.728516,-0.004 0.002,-0.002 0.002,0.002 h 70.72851 l 0.0566,-0.0508 h 30.6543 16.76367 c 0.61772,0.5407 11.77814,10.89597 10.96289,-7.84179 L 256,225.68945 v -0.0273 -3.64258 c 0,-0.94691 -0.20974,-2.06671 -0.63477,-3.16797 -2.44501,-13.65363 -12.38129,-25.28125 -26.04101,-25.28125 h -24.57031 z"
       inkscape:path-effect="#path-effect3"
       inkscape:original-d="m 57.151803,249.99996 70.728567,-0.004 v -0.0516 h 0.004 v 0.0516 l 70.72857,0.001 0.006,-0.0525 h 30.7044 18.65659 c 0.0111,0 1.07906,0.51755 1.07843,0.50307 l -1.05833,-24.59593 v -0.1893 -3.64306 c 0,-0.0142 -0.009,-0.0261 -0.0201,-0.0261 h -0.21663 c -1.36501,-11.58924 -9.0631,-20.4237 -18.43996,-20.4237 h -24.82809 l 0.0325,-0.26503 -76.64436,0.0946 v 0.17044 h -0.003 v -0.17044 l -76.621205,0.0935 0.009,0.0767 H 26.676169 c -9.376858,0 -17.0744103,8.83448 -18.4394375,20.4237 H 8.0201135 C 8.0089615,221.99281 8,222.00504 8,222.01908 v 3.64306 0.1893 24.06674 c 0,0.0142 -0.5202,0.68814 -0.5090527,0.68776 l 19.1853807,-0.66146 h 30.468594 z"
       transform="translate(0,-2.0004969)"
       sodipodi:nodetypes="ccccccccssccsscsccccccccsccsccssccc"
       inkscape:label="path3" />
    <path
       id="path1"
       style="fill:#757575;fill-opacity:1;stroke:#000000;stroke-width:0"
       d="m 57.151803,247.99946 70.728567,-0.004 v -0.0516 h 0.004 v 0.0516 l 70.72857,0.001 0.006,-0.0525 h 30.7044 18.65659 c 0.0111,0 0.0201,-0.0116 0.0201,-0.0261 v -24.06676 -0.1893 -3.64306 c 0,-0.0142 -0.009,-0.0261 -0.0201,-0.0261 h -0.21663 c -1.36501,-11.58924 -9.0631,-20.4237 -18.43996,-20.4237 h -24.82809 l 0.0325,-0.26503 -76.64436,0.0946 v 0.17044 h -0.003 v -0.17044 l -76.621205,0.0935 0.009,0.0767 H 26.676169 c -9.376858,0 -17.0744103,8.83448 -18.4394375,20.4237 H 8.0201135 C 8.0089615,219.99231 8,220.00454 8,220.01858 v 3.64306 0.1893 24.06674 c 0,0.0142 0.00896,0.0263 0.020114,0.0263 h 18.656214 30.468594 z" />
  </g>
  <g
     inkscape:label="Barrel"
     inkscape:groupmode="layer"
     id="layer1"
     style="display:inline">
    <rect
       style="fill:#757575;fill-opacity:1;stroke:#000000;stroke-width:0"
       id="rect2"
       width="20"
       height="181.23956"
       x="78"
       y="34.512001"
       rx="1.5875"
       ry="1.5874999" />
    <rect
       style="fill:#a4a639;fill-opacity:1;stroke:#000000;stroke-width:0"
       id="rect3"
       width="19.948948"
       height="10.114638"
       x="78.038719"
       y="34.42971"
       rx="1.5874999"
       ry="1.5875" />
    <rect
       style="fill:#525252;fill-opacity:1;stroke:#000000;stroke-width:0"
       id="rect5"
       width="19.948948"
       height="2.6778636"
       x="78.038719"
       y="42.971169"
       rx="0"
       ry="0" />
  </g>
  <g
     inkscape:label="Barrel"
     inkscape:groupmode="layer"
     id="g8"
     style="display:inline">
    <rect
       style="fill:#757575;fill-opacity:1;stroke:#000000;stroke-width:0"
       id="rect6"
       width="20"
       height="181.23956"
       x="158"
       y="34.512001"
       rx="1.5875"
       ry="1.5874999" />
    <rect
       style="fill:#a4a639;fill-opacity:1;stroke:#000000;stroke-width:0"
       id="rect7"
       width="19.948948"
       height="10.114638"
       x="158.03871"
       y="34.42971"
       rx="1.5874999"
       ry="1.5875" />
    <rect
       style="fill:#525252;fill-opacity:1;stroke:#000000;stroke-width:0"
       id="rect8"
       width="19.948948"
       height="2.6778636"
       x="158.03871"
       y="42.971169"
       rx="0"
       ry="0" />
  </g>
</svg>
