<?xml version="1.0" encoding="UTF-8" standalone="no"?>
<!-- Created with Inkscape (http://www.inkscape.org/) -->

<svg
   width="256"
   height="256"
   viewBox="0 0 256 256"
   version="1.1"
   id="svg1"
   inkscape:version="1.3.2 (091e20e, 2023-11-25, custom)"
   sodipodi:docname="Hub.svg"
   inkscape:export-filename="Hub.png"
   inkscape:export-xdpi="96"
   inkscape:export-ydpi="96"
   xmlns:inkscape="http://www.inkscape.org/namespaces/inkscape"
   xmlns:sodipodi="http://sodipodi.sourceforge.net/DTD/sodipodi-0.dtd"
   xmlns="http://www.w3.org/2000/svg"
   xmlns:svg="http://www.w3.org/2000/svg">
  <sodipodi:namedview
     id="namedview1"
     pagecolor="#ffffff"
     bordercolor="#000000"
     borderopacity="0.25"
     inkscape:showpageshadow="2"
     inkscape:pageopacity="0.0"
     inkscape:pagecheckerboard="0"
     inkscape:deskcolor="#d1d1d1"
     inkscape:document-units="px"
     inkscape:zoom="2.8284271"
     inkscape:cx="148.84598"
     inkscape:cy="205.94485"
     inkscape:window-width="1920"
     inkscape:window-height="1009"
     inkscape:window-x="-8"
     inkscape:window-y="-8"
     inkscape:window-maximized="1"
     inkscape:current-layer="layer3" />
  <defs
     id="defs1">
    <inkscape:path-effect
       effect="offset"
       id="path-effect10"
       is_visible="true"
       lpeversion="1.2"
       linejoin_type="miter"
       unit="mm"
       offset="0.7"
       miter_limit="4"
       attempt_force_join="false"
       update_on_knot_move="true" />
  </defs>
  <g
     inkscape:groupmode="layer"
     id="layer2"
     inkscape:label="Main"
     style="display:inline">
    <g
       id="g12">
      <rect
         style="display:inline;fill:#757575;fill-opacity:1;stroke:#000000;stroke-width:0"
         id="rect2"
         width="240"
         height="240"
         x="8"
         y="8"
         inkscape:label="rect1"
         ry="12" />
      <path
         style="fill:#6a6a6a;fill-opacity:1;stroke:#000000;stroke-width:0"
         d="m 4.2426407,155.56349 c 0,0 12.0208153,39.24443 90.5096683,33.94113 78.488851,-5.3033 104.651801,8.48528 129.046991,22.27386 24.39518,13.78858 34.29468,25.45585 28.99137,32.88047 -5.3033,7.42462 -63.28605,8.13172 -63.28605,8.13172 L 3.8890873,252.43712 Z"
         id="path8" />
    </g>
    <path
       style="fill:#8a8a8a;fill-opacity:1;stroke:#000000;stroke-width:0"
       d="m 3.8890873,55.507882 c 0,0 23.1920757,-13.144873 42.4264067,-18.031223 C 75.466512,30.071042 84.595296,31.368314 97.934289,19.445437 107.38788,10.995473 138.23937,6.0104076 138.23937,6.0104076 L 89.802561,3.5355339 8.4852814,5.3033009 Z"
       id="path29"
       sodipodi:nodetypes="csscccc" />
  </g>
  <g
     inkscape:groupmode="layer"
     id="layer3"
     inkscape:label="Deco">
    <g
       inkscape:label="Border"
       inkscape:groupmode="layer"
       id="layer1">
      <path
         id="rect1"
         style="fill:#2b2b36;stroke:#000000;stroke-width:0;fill-opacity:1"
         inkscape:label="rect1"
         d="M 0 0 L 0 256 L 256 256 L 256 0 L 0 0 z M 20 8 L 236 8 C 242.64799 8 248 13.352007 248 20 L 248 236 C 248 242.64799 242.64799 248 236 248 L 20 248 C 13.352007 248 8 242.64799 8 236 L 8 20 C 8 13.352007 13.352007 8 20 8 z " />
    </g>
    <g
       id="g11"
       transform="matrix(1.4242641,0,0,1.4242641,-54.305801,-54.305801)">
      <circle
         style="fill:#2b2b36;fill-opacity:1;stroke:#000000;stroke-width:0"
         id="circle1"
         cx="128"
         cy="128"
         r="40" />
      <circle
         style="fill:#b10315;fill-opacity:1;stroke:#000000;stroke-width:0"
         id="path1"
         cx="128"
         cy="128"
         r="32.575378" />
      <circle
         style="fill:#fe6e7c;fill-opacity:1;stroke:#000000;stroke-width:0"
         id="circle2"
         cx="128"
         cy="128"
         r="23.559767" />
    </g>
    <g
       id="g10"
       transform="translate(4.9497475,-4.2426407)">
      <path
         style="fill:#5c5c5c;fill-opacity:1;stroke:#000000;stroke-width:0"
         id="path9"
         width="65.053825"
         height="47.376156"
         x="161.24547"
         y="27.669048"
         ry="4.9289322"
         sodipodi:type="rect"
         inkscape:path-effect="#path-effect10"
         d="m 166.17383,25.023437 c -4.19414,0 -7.57422,3.380081 -7.57422,7.574219 v 37.519531 c 0,4.194139 3.38008,7.574219 7.57422,7.574219 h 55.19726 c 4.19414,0 7.57422,-3.38008 7.57422,-7.574219 V 32.597656 c 0,-4.194138 -3.38008,-7.574218 -7.57422,-7.574219 z" />
      <rect
         style="fill:#1a1a1a;fill-opacity:1;stroke:#000000;stroke-width:0"
         id="rect8"
         width="65.053825"
         height="47.376156"
         x="161.24547"
         y="27.669048"
         ry="4.9289322"
         sodipodi:type="rect" />
      <rect
         style="fill:#0f980d;fill-opacity:1;stroke:#000000;stroke-width:0"
         id="rect14"
         width="20.875"
         height="2.25"
         x="166.125"
         y="33.125"
         ry="0.125" />
      <rect
         style="fill:#0f980d;fill-opacity:1;stroke:#000000;stroke-width:0"
         id="rect15"
         width="5.375"
         height="2.25"
         x="191.52502"
         y="33.125"
         ry="0.125" />
      <rect
         style="fill:#0f980d;fill-opacity:1;stroke:#000000;stroke-width:0"
         id="rect16"
         width="10.375"
         height="2.25"
         x="209.02502"
         y="33.125"
         ry="0.125" />
      <rect
         style="fill:#0f980d;fill-opacity:1;stroke:#000000;stroke-width:0"
         id="rect17"
         width="9.625"
         height="2.25"
         x="166.125"
         y="39.324997"
         ry="0.125" />
      <rect
         style="fill:#0f980d;fill-opacity:1;stroke:#000000;stroke-width:0"
         id="rect18"
         width="21.25"
         height="2.25"
         x="191.52502"
         y="39.324997"
         ry="0.125" />
      <rect
         style="fill:#0f980d;fill-opacity:1;stroke:#000000;stroke-width:0"
         id="rect19"
         width="3.625"
         height="2.25"
         x="166.125"
         y="45.825001"
         ry="0.125" />
      <rect
         style="fill:#0f980d;fill-opacity:1;stroke:#000000;stroke-width:0"
         id="rect20"
         width="21.75"
         height="2.25"
         x="174.82501"
         y="45.825001"
         ry="0.125" />
      <rect
         style="fill:#0f980d;fill-opacity:1;stroke:#000000;stroke-width:0"
         id="rect21"
         width="14"
         height="2.25"
         x="-219.82501"
         y="45.825001"
         ry="0.125"
         transform="scale(-1,1)" />
      <rect
         style="fill:#0f980d;fill-opacity:1;stroke:#000000;stroke-width:0"
         id="rect22"
         width="11.125"
         height="2.25"
         x="172.25"
         y="52.325001"
         ry="0.125" />
      <rect
         style="fill:#0f980d;fill-opacity:1;stroke:#000000;stroke-width:0"
         id="rect23"
         width="6.25"
         height="2.25"
         x="-217.875"
         y="52.325001"
         ry="0.125"
         transform="scale(-1,1)" />
      <rect
         style="fill:#0f980d;fill-opacity:1;stroke:#000000;stroke-width:0"
         id="rect24"
         width="16.375"
         height="2.25"
         x="188.875"
         y="52.325001"
         ry="0.125" />
      <rect
         style="fill:#0f980d;fill-opacity:1;stroke:#000000;stroke-width:0"
         id="rect25"
         width="14"
         height="2.25"
         x="166.125"
         y="59.125"
         ry="0.125" />
      <rect
         style="fill:#0f980d;fill-opacity:1;stroke:#000000;stroke-width:0"
         id="rect26"
         width="31.625"
         height="2.25"
         x="-219.75"
         y="59.125"
         ry="0.125"
         transform="scale(-1,1)" />
      <rect
         style="fill:#0f980d;fill-opacity:1;stroke:#000000;stroke-width:0"
         id="rect27"
         width="25.136932"
         height="2.25"
         x="166.125"
         y="65.824974"
         ry="0.125" />
      <rect
         style="fill:#0f980d;fill-opacity:1;stroke:#000000;stroke-width:0"
         id="rect28"
         width="9.9532423"
         height="2.25"
         x="-207.57913"
         y="65.824974"
         ry="0.125"
         transform="scale(-1,1)" />
      <rect
         style="fill:#0f980d;fill-opacity:1;stroke:#000000;stroke-width:0"
         id="rect29"
         width="4.1005049"
         height="2.25"
         x="215.71086"
         y="65.824974"
         ry="0.125" />
    </g>
    <rect
       style="fill:#2b2b36;fill-opacity:1;stroke:#000000;stroke-width:0"
       id="rect30"
       width="4.25"
       height="67"
       x="33.700005"
       y="93.5"
       ry="0.125" />
    <rect
       style="fill:#2b2b36;fill-opacity:1;stroke:#000000;stroke-width:0"
       id="rect31"
       width="4.25"
       height="67"
       x="46.099968"
       y="93.5"
       ry="0.125" />
    <circle
       style="fill:#2b2b36;fill-opacity:1;stroke:#000000;stroke-width:0"
       id="path31"
       cx="41.055084"
       cy="31.072851"
       r="6.5407376" />
  </g>
</svg>
