<?xml version="1.0" encoding="UTF-8" standalone="no"?>
<!-- Created with Inkscape (http://www.inkscape.org/) -->

<svg
   width="256mm"
   height="256mm"
   viewBox="0 0 256 256"
   version="1.1"
   id="svg1"
   inkscape:version="1.3.2 (091e20e, 2023-11-25, custom)"
   sodipodi:docname="Armor.svg"
   inkscape:export-filename="Armor.png"
   inkscape:export-xdpi="25.4"
   inkscape:export-ydpi="25.4"
   xmlns:inkscape="http://www.inkscape.org/namespaces/inkscape"
   xmlns:sodipodi="http://sodipodi.sourceforge.net/DTD/sodipodi-0.dtd"
   xmlns="http://www.w3.org/2000/svg"
   xmlns:svg="http://www.w3.org/2000/svg">
  <sodipodi:namedview
     id="namedview1"
     pagecolor="#ffffff"
     bordercolor="#000000"
     borderopacity="0.25"
     inkscape:showpageshadow="2"
     inkscape:pageopacity="0.0"
     inkscape:pagecheckerboard="0"
     inkscape:deskcolor="#d1d1d1"
     inkscape:document-units="mm"
     inkscape:zoom="0.34342382"
     inkscape:cx="564.89966"
     inkscape:cy="569.26744"
     inkscape:window-width="1269"
     inkscape:window-height="585"
     inkscape:window-x="308"
     inkscape:window-y="68"
     inkscape:window-maximized="0"
     inkscape:current-layer="layer3" />
  <defs
     id="defs1" />
  <g
     inkscape:label="Layer 1"
     inkscape:groupmode="layer"
     id="layer1">
    <g
       inkscape:groupmode="layer"
       id="layer2"
       inkscape:label="Main"
       style="display:inline">
      <g
         id="g12"
         style="display:inline">
        <rect
           style="display:inline;fill:#757575;fill-opacity:1;stroke:#000000;stroke-width:0"
           id="rect2"
           width="240"
           height="240"
           x="8"
           y="8"
           inkscape:label="rect1"
           ry="12" />
        <path
           style="fill:#6a6a6a;fill-opacity:1;stroke:#000000;stroke-width:0"
           d="m 4.2426407,155.56349 c 0,0 12.0208153,39.24443 90.5096683,33.94113 78.488851,-5.3033 104.651801,8.48528 129.046991,22.27386 24.39518,13.78858 34.29468,25.45585 28.99137,32.88047 -5.3033,7.42462 -63.28605,8.13172 -63.28605,8.13172 L 3.8890873,252.43712 Z"
           id="path8" />
      </g>
      <path
         style="display:inline;fill:#8a8a8a;fill-opacity:1;stroke:#000000;stroke-width:0"
         d="m 3.8890873,55.507882 c 0,0 23.1920757,-13.144873 42.4264067,-18.031223 C 75.466512,30.071042 84.595296,31.368314 97.934289,19.445437 107.38788,10.995473 138.23937,6.0104076 138.23937,6.0104076 L 89.802561,3.5355339 8.4852814,5.3033009 Z"
         id="path29"
         sodipodi:nodetypes="csscccc" />
    </g>
    <g
       inkscape:label="Border"
       inkscape:groupmode="layer"
       id="layer1-4">
      <path
         id="rect1"
         style="fill:#2b2b36;fill-opacity:1;stroke:#000000;stroke-width:0"
         inkscape:label="rect1"
         d="M 0,0 V 256 H 256 V 0 Z m 20,8 h 216 c 6.64799,0 12,5.352007 12,12 v 216 c 0,6.64799 -5.35201,12 -12,12 H 20 C 13.352007,248 8,242.64799 8,236 V 20 C 8,13.352007 13.352007,8 20,8 Z" />
    </g>
  </g>
  <g
     inkscape:groupmode="layer"
     id="layer3"
     inkscape:label="Main 1">
    <circle
       style="fill:#2b2b36;stroke:#000000;stroke-width:0"
       id="path1"
       cx="40"
       cy="40"
       r="10" />
    <circle
       style="fill:#2b2b36;stroke:#000000;stroke-width:0"
       id="circle1"
       cx="216"
       cy="40"
       r="10" />
    <circle
       style="fill:#2b2b36;stroke:#000000;stroke-width:0"
       id="circle2"
       cx="216"
       cy="216"
       r="10" />
    <circle
       style="fill:#2b2b36;stroke:#000000;stroke-width:0"
       id="circle3"
       cx="40"
       cy="216"
       r="10" />
  </g>
</svg>
